<svg width="20" height="20" viewBox="0 0 20 20" fill="none" xmlns="http://www.w3.org/2000/svg">
<path d="M10 0C15.5228 0 20 4.47715 20 10C20 15.5228 15.5228 20 10 20C4.47715 20 0 15.5228 0 10C0 4.47715 4.47715 0 10 0ZM13.2197 6.96967L8.75 11.4393L6.78033 9.4697C6.48744 9.1768 6.01256 9.1768 5.71967 9.4697C5.42678 9.7626 5.42678 10.2374 5.71967 10.5303L8.2197 13.0303C8.5126 13.3232 8.9874 13.3232 9.2803 13.0303L14.2803 8.0303C14.5732 7.73744 14.5732 7.26256 14.2803 6.96967C13.9874 6.67678 13.5126 6.67678 13.2197 6.96967Z" fill="#4DB881"/>
</svg>
